<?xml version="1.0" encoding="utf-8" standalone="no"?>
<!DOCTYPE svg PUBLIC "-//W3C//DTD SVG 1.1//EN"
  "http://www.w3.org/Graphics/SVG/1.1/DTD/svg11.dtd">
<!-- Created with matplotlib (https://matplotlib.org/) -->
<svg height="345.6pt" version="1.1" viewBox="0 0 460.8 345.6" width="460.8pt" xmlns="http://www.w3.org/2000/svg" xmlns:xlink="http://www.w3.org/1999/xlink">
 <defs>
  <style type="text/css">
*{stroke-linecap:butt;stroke-linejoin:round;}
  </style>
 </defs>
 <g id="figure_1">
  <g id="patch_1">
   <path d="M 0 345.6 
L 460.8 345.6 
L 460.8 0 
L 0 0 
z
" style="fill:#ffffff;"/>
  </g>
  <g id="axes_1">
   <g id="patch_2">
    <path d="M 57.6 307.584 
L 414.72 307.584 
L 414.72 41.472 
L 57.6 41.472 
z
" style="fill:#ffffff;"/>
   </g>
   <g id="matplotlib.axis_1">
    <g id="xtick_1">
     <g id="line2d_1">
      <defs>
       <path d="M 0 0 
L 0 3.5 
" id="m61cca4a331" style="stroke:#000000;stroke-width:0.8;"/>
      </defs>
      <g>
       <use style="stroke:#000000;stroke-width:0.8;" x="93.454705" xlink:href="#m61cca4a331" y="307.584"/>
      </g>
     </g>
     <g id="text_1">
      <!-- Numpy create -->
      <defs>
       <path d="M 9.8125 72.90625 
L 23.09375 72.90625 
L 55.421875 11.921875 
L 55.421875 72.90625 
L 64.984375 72.90625 
L 64.984375 0 
L 51.703125 0 
L 19.390625 60.984375 
L 19.390625 0 
L 9.8125 0 
z
" id="DejaVuSans-78"/>
       <path d="M 8.5 21.578125 
L 8.5 54.6875 
L 17.484375 54.6875 
L 17.484375 21.921875 
Q 17.484375 14.15625 20.5 10.265625 
Q 23.53125 6.390625 29.59375 6.390625 
Q 36.859375 6.390625 41.078125 11.03125 
Q 45.3125 15.671875 45.3125 23.6875 
L 45.3125 54.6875 
L 54.296875 54.6875 
L 54.296875 0 
L 45.3125 0 
L 45.3125 8.40625 
Q 42.046875 3.421875 37.71875 1 
Q 33.40625 -1.421875 27.6875 -1.421875 
Q 18.265625 -1.421875 13.375 4.4375 
Q 8.5 10.296875 8.5 21.578125 
z
M 31.109375 56 
z
" id="DejaVuSans-117"/>
       <path d="M 52 44.1875 
Q 55.375 50.25 60.0625 53.125 
Q 64.75 56 71.09375 56 
Q 79.640625 56 84.28125 50.015625 
Q 88.921875 44.046875 88.921875 33.015625 
L 88.921875 0 
L 79.890625 0 
L 79.890625 32.71875 
Q 79.890625 40.578125 77.09375 44.375 
Q 74.3125 48.1875 68.609375 48.1875 
Q 61.625 48.1875 57.5625 43.546875 
Q 53.515625 38.921875 53.515625 30.90625 
L 53.515625 0 
L 44.484375 0 
L 44.484375 32.71875 
Q 44.484375 40.625 41.703125 44.40625 
Q 38.921875 48.1875 33.109375 48.1875 
Q 26.21875 48.1875 22.15625 43.53125 
Q 18.109375 38.875 18.109375 30.90625 
L 18.109375 0 
L 9.078125 0 
L 9.078125 54.6875 
L 18.109375 54.6875 
L 18.109375 46.1875 
Q 21.1875 51.21875 25.484375 53.609375 
Q 29.78125 56 35.6875 56 
Q 41.65625 56 45.828125 52.96875 
Q 50 49.953125 52 44.1875 
z
" id="DejaVuSans-109"/>
       <path d="M 18.109375 8.203125 
L 18.109375 -20.796875 
L 9.078125 -20.796875 
L 9.078125 54.6875 
L 18.109375 54.6875 
L 18.109375 46.390625 
Q 20.953125 51.265625 25.265625 53.625 
Q 29.59375 56 35.59375 56 
Q 45.5625 56 51.78125 48.09375 
Q 58.015625 40.1875 58.015625 27.296875 
Q 58.015625 14.40625 51.78125 6.484375 
Q 45.5625 -1.421875 35.59375 -1.421875 
Q 29.59375 -1.421875 25.265625 0.953125 
Q 20.953125 3.328125 18.109375 8.203125 
z
M 48.6875 27.296875 
Q 48.6875 37.203125 44.609375 42.84375 
Q 40.53125 48.484375 33.40625 48.484375 
Q 26.265625 48.484375 22.1875 42.84375 
Q 18.109375 37.203125 18.109375 27.296875 
Q 18.109375 17.390625 22.1875 11.75 
Q 26.265625 6.109375 33.40625 6.109375 
Q 40.53125 6.109375 44.609375 11.75 
Q 48.6875 17.390625 48.6875 27.296875 
z
" id="DejaVuSans-112"/>
       <path d="M 32.171875 -5.078125 
Q 28.375 -14.84375 24.75 -17.8125 
Q 21.140625 -20.796875 15.09375 -20.796875 
L 7.90625 -20.796875 
L 7.90625 -13.28125 
L 13.1875 -13.28125 
Q 16.890625 -13.28125 18.9375 -11.515625 
Q 21 -9.765625 23.484375 -3.21875 
L 25.09375 0.875 
L 2.984375 54.6875 
L 12.5 54.6875 
L 29.59375 11.921875 
L 46.6875 54.6875 
L 56.203125 54.6875 
z
" id="DejaVuSans-121"/>
       <path id="DejaVuSans-32"/>
       <path d="M 48.78125 52.59375 
L 48.78125 44.1875 
Q 44.96875 46.296875 41.140625 47.34375 
Q 37.3125 48.390625 33.40625 48.390625 
Q 24.65625 48.390625 19.8125 42.84375 
Q 14.984375 37.3125 14.984375 27.296875 
Q 14.984375 17.28125 19.8125 11.734375 
Q 24.65625 6.203125 33.40625 6.203125 
Q 37.3125 6.203125 41.140625 7.25 
Q 44.96875 8.296875 48.78125 10.40625 
L 48.78125 2.09375 
Q 45.015625 0.34375 40.984375 -0.53125 
Q 36.96875 -1.421875 32.421875 -1.421875 
Q 20.0625 -1.421875 12.78125 6.34375 
Q 5.515625 14.109375 5.515625 27.296875 
Q 5.515625 40.671875 12.859375 48.328125 
Q 20.21875 56 33.015625 56 
Q 37.15625 56 41.109375 55.140625 
Q 45.0625 54.296875 48.78125 52.59375 
z
" id="DejaVuSans-99"/>
       <path d="M 41.109375 46.296875 
Q 39.59375 47.171875 37.8125 47.578125 
Q 36.03125 48 33.890625 48 
Q 26.265625 48 22.1875 43.046875 
Q 18.109375 38.09375 18.109375 28.8125 
L 18.109375 0 
L 9.078125 0 
L 9.078125 54.6875 
L 18.109375 54.6875 
L 18.109375 46.1875 
Q 20.953125 51.171875 25.484375 53.578125 
Q 30.03125 56 36.53125 56 
Q 37.453125 56 38.578125 55.875 
Q 39.703125 55.765625 41.0625 55.515625 
z
" id="DejaVuSans-114"/>
       <path d="M 56.203125 29.59375 
L 56.203125 25.203125 
L 14.890625 25.203125 
Q 15.484375 15.921875 20.484375 11.0625 
Q 25.484375 6.203125 34.421875 6.203125 
Q 39.59375 6.203125 44.453125 7.46875 
Q 49.3125 8.734375 54.109375 11.28125 
L 54.109375 2.78125 
Q 49.265625 0.734375 44.1875 -0.34375 
Q 39.109375 -1.421875 33.890625 -1.421875 
Q 20.796875 -1.421875 13.15625 6.1875 
Q 5.515625 13.8125 5.515625 26.8125 
Q 5.515625 40.234375 12.765625 48.109375 
Q 20.015625 56 32.328125 56 
Q 43.359375 56 49.78125 48.890625 
Q 56.203125 41.796875 56.203125 29.59375 
z
M 47.21875 32.234375 
Q 47.125 39.59375 43.09375 43.984375 
Q 39.0625 48.390625 32.421875 48.390625 
Q 24.90625 48.390625 20.390625 44.140625 
Q 15.875 39.890625 15.1875 32.171875 
z
" id="DejaVuSans-101"/>
       <path d="M 34.28125 27.484375 
Q 23.390625 27.484375 19.1875 25 
Q 14.984375 22.515625 14.984375 16.5 
Q 14.984375 11.71875 18.140625 8.90625 
Q 21.296875 6.109375 26.703125 6.109375 
Q 34.1875 6.109375 38.703125 11.40625 
Q 43.21875 16.703125 43.21875 25.484375 
L 43.21875 27.484375 
z
M 52.203125 31.203125 
L 52.203125 0 
L 43.21875 0 
L 43.21875 8.296875 
Q 40.140625 3.328125 35.546875 0.953125 
Q 30.953125 -1.421875 24.3125 -1.421875 
Q 15.921875 -1.421875 10.953125 3.296875 
Q 6 8.015625 6 15.921875 
Q 6 25.140625 12.171875 29.828125 
Q 18.359375 34.515625 30.609375 34.515625 
L 43.21875 34.515625 
L 43.21875 35.40625 
Q 43.21875 41.609375 39.140625 45 
Q 35.0625 48.390625 27.6875 48.390625 
Q 23 48.390625 18.546875 47.265625 
Q 14.109375 46.140625 10.015625 43.890625 
L 10.015625 52.203125 
Q 14.9375 54.109375 19.578125 55.046875 
Q 24.21875 56 28.609375 56 
Q 40.484375 56 46.34375 49.84375 
Q 52.203125 43.703125 52.203125 31.203125 
z
" id="DejaVuSans-97"/>
       <path d="M 18.3125 70.21875 
L 18.3125 54.6875 
L 36.8125 54.6875 
L 36.8125 47.703125 
L 18.3125 47.703125 
L 18.3125 18.015625 
Q 18.3125 11.328125 20.140625 9.421875 
Q 21.96875 7.515625 27.59375 7.515625 
L 36.8125 7.515625 
L 36.8125 0 
L 27.59375 0 
Q 17.1875 0 13.234375 3.875 
Q 9.28125 7.765625 9.28125 18.015625 
L 9.28125 47.703125 
L 2.6875 47.703125 
L 2.6875 54.6875 
L 9.28125 54.6875 
L 9.28125 70.21875 
z
" id="DejaVuSans-116"/>
      </defs>
      <g transform="translate(57.971893 322.182437)scale(0.1 -0.1)">
       <use xlink:href="#DejaVuSans-78"/>
       <use x="74.804688" xlink:href="#DejaVuSans-117"/>
       <use x="138.183594" xlink:href="#DejaVuSans-109"/>
       <use x="235.595703" xlink:href="#DejaVuSans-112"/>
       <use x="299.072266" xlink:href="#DejaVuSans-121"/>
       <use x="358.251953" xlink:href="#DejaVuSans-32"/>
       <use x="390.039062" xlink:href="#DejaVuSans-99"/>
       <use x="445.019531" xlink:href="#DejaVuSans-114"/>
       <use x="486.101562" xlink:href="#DejaVuSans-101"/>
       <use x="547.625" xlink:href="#DejaVuSans-97"/>
       <use x="608.904297" xlink:href="#DejaVuSans-116"/>
       <use x="648.113281" xlink:href="#DejaVuSans-101"/>
      </g>
     </g>
    </g>
    <g id="xtick_2">
     <g id="line2d_2">
      <g>
       <use style="stroke:#000000;stroke-width:0.8;" x="164.807353" xlink:href="#m61cca4a331" y="307.584"/>
      </g>
     </g>
     <g id="text_2">
      <!-- Numpy sort -->
      <defs>
       <path d="M 44.28125 53.078125 
L 44.28125 44.578125 
Q 40.484375 46.53125 36.375 47.5 
Q 32.28125 48.484375 27.875 48.484375 
Q 21.1875 48.484375 17.84375 46.4375 
Q 14.5 44.390625 14.5 40.28125 
Q 14.5 37.15625 16.890625 35.375 
Q 19.28125 33.59375 26.515625 31.984375 
L 29.59375 31.296875 
Q 39.15625 29.25 43.1875 25.515625 
Q 47.21875 21.78125 47.21875 15.09375 
Q 47.21875 7.46875 41.1875 3.015625 
Q 35.15625 -1.421875 24.609375 -1.421875 
Q 20.21875 -1.421875 15.453125 -0.5625 
Q 10.6875 0.296875 5.421875 2 
L 5.421875 11.28125 
Q 10.40625 8.6875 15.234375 7.390625 
Q 20.0625 6.109375 24.8125 6.109375 
Q 31.15625 6.109375 34.5625 8.28125 
Q 37.984375 10.453125 37.984375 14.40625 
Q 37.984375 18.0625 35.515625 20.015625 
Q 33.0625 21.96875 24.703125 23.78125 
L 21.578125 24.515625 
Q 13.234375 26.265625 9.515625 29.90625 
Q 5.8125 33.546875 5.8125 39.890625 
Q 5.8125 47.609375 11.28125 51.796875 
Q 16.75 56 26.8125 56 
Q 31.78125 56 36.171875 55.265625 
Q 40.578125 54.546875 44.28125 53.078125 
z
" id="DejaVuSans-115"/>
       <path d="M 30.609375 48.390625 
Q 23.390625 48.390625 19.1875 42.75 
Q 14.984375 37.109375 14.984375 27.296875 
Q 14.984375 17.484375 19.15625 11.84375 
Q 23.34375 6.203125 30.609375 6.203125 
Q 37.796875 6.203125 41.984375 11.859375 
Q 46.1875 17.53125 46.1875 27.296875 
Q 46.1875 37.015625 41.984375 42.703125 
Q 37.796875 48.390625 30.609375 48.390625 
z
M 30.609375 56 
Q 42.328125 56 49.015625 48.375 
Q 55.71875 40.765625 55.71875 27.296875 
Q 55.71875 13.875 49.015625 6.21875 
Q 42.328125 -1.421875 30.609375 -1.421875 
Q 18.84375 -1.421875 12.171875 6.21875 
Q 5.515625 13.875 5.515625 27.296875 
Q 5.515625 40.765625 12.171875 48.375 
Q 18.84375 56 30.609375 56 
z
" id="DejaVuSans-111"/>
      </defs>
      <g transform="translate(135.625321 322.182437)scale(0.1 -0.1)">
       <use xlink:href="#DejaVuSans-78"/>
       <use x="74.804688" xlink:href="#DejaVuSans-117"/>
       <use x="138.183594" xlink:href="#DejaVuSans-109"/>
       <use x="235.595703" xlink:href="#DejaVuSans-112"/>
       <use x="299.072266" xlink:href="#DejaVuSans-121"/>
       <use x="358.251953" xlink:href="#DejaVuSans-32"/>
       <use x="390.039062" xlink:href="#DejaVuSans-115"/>
       <use x="442.138672" xlink:href="#DejaVuSans-111"/>
       <use x="503.320312" xlink:href="#DejaVuSans-114"/>
       <use x="544.433594" xlink:href="#DejaVuSans-116"/>
      </g>
     </g>
    </g>
    <g id="xtick_3">
     <g id="line2d_3">
      <g>
       <use style="stroke:#000000;stroke-width:0.8;" x="236.16" xlink:href="#m61cca4a331" y="307.584"/>
      </g>
     </g>
     <g id="text_3">
      <!-- insertion_sort -->
      <defs>
       <path d="M 9.421875 54.6875 
L 18.40625 54.6875 
L 18.40625 0 
L 9.421875 0 
z
M 9.421875 75.984375 
L 18.40625 75.984375 
L 18.40625 64.59375 
L 9.421875 64.59375 
z
" id="DejaVuSans-105"/>
       <path d="M 54.890625 33.015625 
L 54.890625 0 
L 45.90625 0 
L 45.90625 32.71875 
Q 45.90625 40.484375 42.875 44.328125 
Q 39.84375 48.1875 33.796875 48.1875 
Q 26.515625 48.1875 22.3125 43.546875 
Q 18.109375 38.921875 18.109375 30.90625 
L 18.109375 0 
L 9.078125 0 
L 9.078125 54.6875 
L 18.109375 54.6875 
L 18.109375 46.1875 
Q 21.34375 51.125 25.703125 53.5625 
Q 30.078125 56 35.796875 56 
Q 45.21875 56 50.046875 50.171875 
Q 54.890625 44.34375 54.890625 33.015625 
z
" id="DejaVuSans-110"/>
       <path d="M 50.984375 -16.609375 
L 50.984375 -23.578125 
L -0.984375 -23.578125 
L -0.984375 -16.609375 
z
" id="DejaVuSans-95"/>
      </defs>
      <g transform="translate(202.108437 322.182437)scale(0.1 -0.1)">
       <use xlink:href="#DejaVuSans-105"/>
       <use x="27.783203" xlink:href="#DejaVuSans-110"/>
       <use x="91.162109" xlink:href="#DejaVuSans-115"/>
       <use x="143.261719" xlink:href="#DejaVuSans-101"/>
       <use x="204.785156" xlink:href="#DejaVuSans-114"/>
       <use x="245.898438" xlink:href="#DejaVuSans-116"/>
       <use x="285.107422" xlink:href="#DejaVuSans-105"/>
       <use x="312.890625" xlink:href="#DejaVuSans-111"/>
       <use x="374.072266" xlink:href="#DejaVuSans-110"/>
       <use x="437.451172" xlink:href="#DejaVuSans-95"/>
       <use x="487.451172" xlink:href="#DejaVuSans-115"/>
       <use x="539.550781" xlink:href="#DejaVuSans-111"/>
       <use x="600.732422" xlink:href="#DejaVuSans-114"/>
       <use x="641.845703" xlink:href="#DejaVuSans-116"/>
      </g>
     </g>
    </g>
    <g id="xtick_4">
     <g id="line2d_4">
      <g>
       <use style="stroke:#000000;stroke-width:0.8;" x="307.512647" xlink:href="#m61cca4a331" y="307.584"/>
      </g>
     </g>
     <g id="text_4">
      <!-- python_sort -->
      <defs>
       <path d="M 54.890625 33.015625 
L 54.890625 0 
L 45.90625 0 
L 45.90625 32.71875 
Q 45.90625 40.484375 42.875 44.328125 
Q 39.84375 48.1875 33.796875 48.1875 
Q 26.515625 48.1875 22.3125 43.546875 
Q 18.109375 38.921875 18.109375 30.90625 
L 18.109375 0 
L 9.078125 0 
L 9.078125 75.984375 
L 18.109375 75.984375 
L 18.109375 46.1875 
Q 21.34375 51.125 25.703125 53.5625 
Q 30.078125 56 35.796875 56 
Q 45.21875 56 50.046875 50.171875 
Q 54.890625 44.34375 54.890625 33.015625 
z
" id="DejaVuSans-104"/>
      </defs>
      <g transform="translate(277.842335 322.182437)scale(0.1 -0.1)">
       <use xlink:href="#DejaVuSans-112"/>
       <use x="63.476562" xlink:href="#DejaVuSans-121"/>
       <use x="122.65625" xlink:href="#DejaVuSans-116"/>
       <use x="161.865234" xlink:href="#DejaVuSans-104"/>
       <use x="225.244141" xlink:href="#DejaVuSans-111"/>
       <use x="286.425781" xlink:href="#DejaVuSans-110"/>
       <use x="349.804688" xlink:href="#DejaVuSans-95"/>
       <use x="399.804688" xlink:href="#DejaVuSans-115"/>
       <use x="451.904297" xlink:href="#DejaVuSans-111"/>
       <use x="513.085938" xlink:href="#DejaVuSans-114"/>
       <use x="554.199219" xlink:href="#DejaVuSans-116"/>
      </g>
     </g>
    </g>
    <g id="xtick_5">
     <g id="line2d_5">
      <g>
       <use style="stroke:#000000;stroke-width:0.8;" x="378.865295" xlink:href="#m61cca4a331" y="307.584"/>
      </g>
     </g>
     <g id="text_5">
      <!-- qsort -->
      <defs>
       <path d="M 14.796875 27.296875 
Q 14.796875 17.390625 18.875 11.75 
Q 22.953125 6.109375 30.078125 6.109375 
Q 37.203125 6.109375 41.296875 11.75 
Q 45.40625 17.390625 45.40625 27.296875 
Q 45.40625 37.203125 41.296875 42.84375 
Q 37.203125 48.484375 30.078125 48.484375 
Q 22.953125 48.484375 18.875 42.84375 
Q 14.796875 37.203125 14.796875 27.296875 
z
M 45.40625 8.203125 
Q 42.578125 3.328125 38.25 0.953125 
Q 33.9375 -1.421875 27.875 -1.421875 
Q 17.96875 -1.421875 11.734375 6.484375 
Q 5.515625 14.40625 5.515625 27.296875 
Q 5.515625 40.1875 11.734375 48.09375 
Q 17.96875 56 27.875 56 
Q 33.9375 56 38.25 53.625 
Q 42.578125 51.265625 45.40625 46.390625 
L 45.40625 54.6875 
L 54.390625 54.6875 
L 54.390625 -20.796875 
L 45.40625 -20.796875 
z
" id="DejaVuSans-113"/>
      </defs>
      <g transform="translate(366.011388 322.182437)scale(0.1 -0.1)">
       <use xlink:href="#DejaVuSans-113"/>
       <use x="63.476562" xlink:href="#DejaVuSans-115"/>
       <use x="115.576172" xlink:href="#DejaVuSans-111"/>
       <use x="176.757812" xlink:href="#DejaVuSans-114"/>
       <use x="217.871094" xlink:href="#DejaVuSans-116"/>
      </g>
     </g>
    </g>
    <g id="text_6">
     <!-- Algorithme -->
     <defs>
      <path d="M 34.1875 63.1875 
L 20.796875 26.90625 
L 47.609375 26.90625 
z
M 28.609375 72.90625 
L 39.796875 72.90625 
L 67.578125 0 
L 57.328125 0 
L 50.6875 18.703125 
L 17.828125 18.703125 
L 11.1875 0 
L 0.78125 0 
z
" id="DejaVuSans-65"/>
      <path d="M 9.421875 75.984375 
L 18.40625 75.984375 
L 18.40625 0 
L 9.421875 0 
z
" id="DejaVuSans-108"/>
      <path d="M 45.40625 27.984375 
Q 45.40625 37.75 41.375 43.109375 
Q 37.359375 48.484375 30.078125 48.484375 
Q 22.859375 48.484375 18.828125 43.109375 
Q 14.796875 37.75 14.796875 27.984375 
Q 14.796875 18.265625 18.828125 12.890625 
Q 22.859375 7.515625 30.078125 7.515625 
Q 37.359375 7.515625 41.375 12.890625 
Q 45.40625 18.265625 45.40625 27.984375 
z
M 54.390625 6.78125 
Q 54.390625 -7.171875 48.1875 -13.984375 
Q 42 -20.796875 29.203125 -20.796875 
Q 24.46875 -20.796875 20.265625 -20.09375 
Q 16.0625 -19.390625 12.109375 -17.921875 
L 12.109375 -9.1875 
Q 16.0625 -11.328125 19.921875 -12.34375 
Q 23.78125 -13.375 27.78125 -13.375 
Q 36.625 -13.375 41.015625 -8.765625 
Q 45.40625 -4.15625 45.40625 5.171875 
L 45.40625 9.625 
Q 42.625 4.78125 38.28125 2.390625 
Q 33.9375 0 27.875 0 
Q 17.828125 0 11.671875 7.65625 
Q 5.515625 15.328125 5.515625 27.984375 
Q 5.515625 40.671875 11.671875 48.328125 
Q 17.828125 56 27.875 56 
Q 33.9375 56 38.28125 53.609375 
Q 42.625 51.21875 45.40625 46.390625 
L 45.40625 54.6875 
L 54.390625 54.6875 
z
" id="DejaVuSans-103"/>
     </defs>
     <g transform="translate(208.596719 336.138688)scale(0.1 -0.1)">
      <use xlink:href="#DejaVuSans-65"/>
      <use x="68.408203" xlink:href="#DejaVuSans-108"/>
      <use x="96.191406" xlink:href="#DejaVuSans-103"/>
      <use x="159.667969" xlink:href="#DejaVuSans-111"/>
      <use x="220.849609" xlink:href="#DejaVuSans-114"/>
      <use x="261.962891" xlink:href="#DejaVuSans-105"/>
      <use x="289.746094" xlink:href="#DejaVuSans-116"/>
      <use x="328.955078" xlink:href="#DejaVuSans-104"/>
      <use x="392.333984" xlink:href="#DejaVuSans-109"/>
      <use x="489.746094" xlink:href="#DejaVuSans-101"/>
     </g>
    </g>
   </g>
   <g id="matplotlib.axis_2">
    <g id="ytick_1">
     <g id="line2d_6">
      <path clip-path="url(#peb5fa7392e)" d="M 57.6 271.632004 
L 414.72 271.632004 
" style="fill:none;stroke:#cccccc;stroke-dasharray:2.96,1.28;stroke-dashoffset:0;stroke-width:0.8;"/>
     </g>
     <g id="line2d_7">
      <defs>
       <path d="M 0 0 
L -3.5 0 
" id="mda4bd950b6" style="stroke:#000000;stroke-width:0.8;"/>
      </defs>
      <g>
       <use style="stroke:#000000;stroke-width:0.8;" x="57.6" xlink:href="#mda4bd950b6" y="271.632004"/>
      </g>
     </g>
     <g id="text_7">
      <!-- $\mathdefault{10^{-3}}$ -->
      <defs>
       <path d="M 12.40625 8.296875 
L 28.515625 8.296875 
L 28.515625 63.921875 
L 10.984375 60.40625 
L 10.984375 69.390625 
L 28.421875 72.90625 
L 38.28125 72.90625 
L 38.28125 8.296875 
L 54.390625 8.296875 
L 54.390625 0 
L 12.40625 0 
z
" id="DejaVuSans-49"/>
       <path d="M 31.78125 66.40625 
Q 24.171875 66.40625 20.328125 58.90625 
Q 16.5 51.421875 16.5 36.375 
Q 16.5 21.390625 20.328125 13.890625 
Q 24.171875 6.390625 31.78125 6.390625 
Q 39.453125 6.390625 43.28125 13.890625 
Q 47.125 21.390625 47.125 36.375 
Q 47.125 51.421875 43.28125 58.90625 
Q 39.453125 66.40625 31.78125 66.40625 
z
M 31.78125 74.21875 
Q 44.046875 74.21875 50.515625 64.515625 
Q 56.984375 54.828125 56.984375 36.375 
Q 56.984375 17.96875 50.515625 8.265625 
Q 44.046875 -1.421875 31.78125 -1.421875 
Q 19.53125 -1.421875 13.0625 8.265625 
Q 6.59375 17.96875 6.59375 36.375 
Q 6.59375 54.828125 13.0625 64.515625 
Q 19.53125 74.21875 31.78125 74.21875 
z
" id="DejaVuSans-48"/>
       <path d="M 10.59375 35.5 
L 73.1875 35.5 
L 73.1875 27.203125 
L 10.59375 27.203125 
z
" id="DejaVuSans-8722"/>
       <path d="M 40.578125 39.3125 
Q 47.65625 37.796875 51.625 33 
Q 55.609375 28.21875 55.609375 21.1875 
Q 55.609375 10.40625 48.1875 4.484375 
Q 40.765625 -1.421875 27.09375 -1.421875 
Q 22.515625 -1.421875 17.65625 -0.515625 
Q 12.796875 0.390625 7.625 2.203125 
L 7.625 11.71875 
Q 11.71875 9.328125 16.59375 8.109375 
Q 21.484375 6.890625 26.8125 6.890625 
Q 36.078125 6.890625 40.9375 10.546875 
Q 45.796875 14.203125 45.796875 21.1875 
Q 45.796875 27.640625 41.28125 31.265625 
Q 36.765625 34.90625 28.71875 34.90625 
L 20.21875 34.90625 
L 20.21875 43.015625 
L 29.109375 43.015625 
Q 36.375 43.015625 40.234375 45.921875 
Q 44.09375 48.828125 44.09375 54.296875 
Q 44.09375 59.90625 40.109375 62.90625 
Q 36.140625 65.921875 28.71875 65.921875 
Q 24.65625 65.921875 20.015625 65.03125 
Q 15.375 64.15625 9.8125 62.3125 
L 9.8125 71.09375 
Q 15.4375 72.65625 20.34375 73.4375 
Q 25.25 74.21875 29.59375 74.21875 
Q 40.828125 74.21875 47.359375 69.109375 
Q 53.90625 64.015625 53.90625 55.328125 
Q 53.90625 49.265625 50.4375 45.09375 
Q 46.96875 40.921875 40.578125 39.3125 
z
" id="DejaVuSans-51"/>
      </defs>
      <g transform="translate(27.1 275.431223)scale(0.1 -0.1)">
       <use transform="translate(0 0.765625)" xlink:href="#DejaVuSans-49"/>
       <use transform="translate(63.623047 0.765625)" xlink:href="#DejaVuSans-48"/>
       <use transform="translate(128.203125 39.046875)scale(0.7)" xlink:href="#DejaVuSans-8722"/>
       <use transform="translate(186.855469 39.046875)scale(0.7)" xlink:href="#DejaVuSans-51"/>
      </g>
     </g>
    </g>
    <g id="ytick_2">
     <g id="line2d_8">
      <path clip-path="url(#peb5fa7392e)" d="M 57.6 226.146448 
L 414.72 226.146448 
" style="fill:none;stroke:#cccccc;stroke-dasharray:2.96,1.28;stroke-dashoffset:0;stroke-width:0.8;"/>
     </g>
     <g id="line2d_9">
      <g>
       <use style="stroke:#000000;stroke-width:0.8;" x="57.6" xlink:href="#mda4bd950b6" y="226.146448"/>
      </g>
     </g>
     <g id="text_8">
      <!-- $\mathdefault{10^{-2}}$ -->
      <defs>
       <path d="M 19.1875 8.296875 
L 53.609375 8.296875 
L 53.609375 0 
L 7.328125 0 
L 7.328125 8.296875 
Q 12.9375 14.109375 22.625 23.890625 
Q 32.328125 33.6875 34.8125 36.53125 
Q 39.546875 41.84375 41.421875 45.53125 
Q 43.3125 49.21875 43.3125 52.78125 
Q 43.3125 58.59375 39.234375 62.25 
Q 35.15625 65.921875 28.609375 65.921875 
Q 23.96875 65.921875 18.8125 64.3125 
Q 13.671875 62.703125 7.8125 59.421875 
L 7.8125 69.390625 
Q 13.765625 71.78125 18.9375 73 
Q 24.125 74.21875 28.421875 74.21875 
Q 39.75 74.21875 46.484375 68.546875 
Q 53.21875 62.890625 53.21875 53.421875 
Q 53.21875 48.921875 51.53125 44.890625 
Q 49.859375 40.875 45.40625 35.40625 
Q 44.1875 33.984375 37.640625 27.21875 
Q 31.109375 20.453125 19.1875 8.296875 
z
" id="DejaVuSans-50"/>
      </defs>
      <g transform="translate(27.1 229.945666)scale(0.1 -0.1)">
       <use transform="translate(0 0.765625)" xlink:href="#DejaVuSans-49"/>
       <use transform="translate(63.623047 0.765625)" xlink:href="#DejaVuSans-48"/>
       <use transform="translate(128.203125 39.046875)scale(0.7)" xlink:href="#DejaVuSans-8722"/>
       <use transform="translate(186.855469 39.046875)scale(0.7)" xlink:href="#DejaVuSans-50"/>
      </g>
     </g>
    </g>
    <g id="ytick_3">
     <g id="line2d_10">
      <path clip-path="url(#peb5fa7392e)" d="M 57.6 180.660891 
L 414.72 180.660891 
" style="fill:none;stroke:#cccccc;stroke-dasharray:2.96,1.28;stroke-dashoffset:0;stroke-width:0.8;"/>
     </g>
     <g id="line2d_11">
      <g>
       <use style="stroke:#000000;stroke-width:0.8;" x="57.6" xlink:href="#mda4bd950b6" y="180.660891"/>
      </g>
     </g>
     <g id="text_9">
      <!-- $\mathdefault{10^{-1}}$ -->
      <g transform="translate(27.1 184.46011)scale(0.1 -0.1)">
       <use transform="translate(0 0.684375)" xlink:href="#DejaVuSans-49"/>
       <use transform="translate(63.623047 0.684375)" xlink:href="#DejaVuSans-48"/>
       <use transform="translate(128.203125 38.965625)scale(0.7)" xlink:href="#DejaVuSans-8722"/>
       <use transform="translate(186.855469 38.965625)scale(0.7)" xlink:href="#DejaVuSans-49"/>
      </g>
     </g>
    </g>
    <g id="ytick_4">
     <g id="line2d_12">
      <path clip-path="url(#peb5fa7392e)" d="M 57.6 135.175334 
L 414.72 135.175334 
" style="fill:none;stroke:#cccccc;stroke-dasharray:2.96,1.28;stroke-dashoffset:0;stroke-width:0.8;"/>
     </g>
     <g id="line2d_13">
      <g>
       <use style="stroke:#000000;stroke-width:0.8;" x="57.6" xlink:href="#mda4bd950b6" y="135.175334"/>
      </g>
     </g>
     <g id="text_10">
      <!-- $\mathdefault{10^{0}}$ -->
      <g transform="translate(33 138.974553)scale(0.1 -0.1)">
       <use transform="translate(0 0.765625)" xlink:href="#DejaVuSans-49"/>
       <use transform="translate(63.623047 0.765625)" xlink:href="#DejaVuSans-48"/>
       <use transform="translate(128.203125 39.046875)scale(0.7)" xlink:href="#DejaVuSans-48"/>
      </g>
     </g>
    </g>
    <g id="ytick_5">
     <g id="line2d_14">
      <path clip-path="url(#peb5fa7392e)" d="M 57.6 89.689777 
L 414.72 89.689777 
" style="fill:none;stroke:#cccccc;stroke-dasharray:2.96,1.28;stroke-dashoffset:0;stroke-width:0.8;"/>
     </g>
     <g id="line2d_15">
      <g>
       <use style="stroke:#000000;stroke-width:0.8;" x="57.6" xlink:href="#mda4bd950b6" y="89.689777"/>
      </g>
     </g>
     <g id="text_11">
      <!-- $\mathdefault{10^{1}}$ -->
      <g transform="translate(33 93.488996)scale(0.1 -0.1)">
       <use transform="translate(0 0.684375)" xlink:href="#DejaVuSans-49"/>
       <use transform="translate(63.623047 0.684375)" xlink:href="#DejaVuSans-48"/>
       <use transform="translate(128.203125 38.965625)scale(0.7)" xlink:href="#DejaVuSans-49"/>
      </g>
     </g>
    </g>
    <g id="ytick_6">
     <g id="line2d_16">
      <path clip-path="url(#peb5fa7392e)" d="M 57.6 44.204221 
L 414.72 44.204221 
" style="fill:none;stroke:#cccccc;stroke-dasharray:2.96,1.28;stroke-dashoffset:0;stroke-width:0.8;"/>
     </g>
     <g id="line2d_17">
      <g>
       <use style="stroke:#000000;stroke-width:0.8;" x="57.6" xlink:href="#mda4bd950b6" y="44.204221"/>
      </g>
     </g>
     <g id="text_12">
      <!-- $\mathdefault{10^{2}}$ -->
      <g transform="translate(33 48.00344)scale(0.1 -0.1)">
       <use transform="translate(0 0.765625)" xlink:href="#DejaVuSans-49"/>
       <use transform="translate(63.623047 0.765625)" xlink:href="#DejaVuSans-48"/>
       <use transform="translate(128.203125 39.046875)scale(0.7)" xlink:href="#DejaVuSans-50"/>
      </g>
     </g>
    </g>
    <g id="ytick_7">
     <g id="line2d_18">
      <defs>
       <path d="M 0 0 
L -2 0 
" id="m51b5517578" style="stroke:#000000;stroke-width:0.6;"/>
      </defs>
      <g>
       <use style="stroke:#000000;stroke-width:0.6;" x="57.6" xlink:href="#m51b5517578" y="303.425044"/>
      </g>
     </g>
    </g>
    <g id="ytick_8">
     <g id="line2d_19">
      <g>
       <use style="stroke:#000000;stroke-width:0.6;" x="57.6" xlink:href="#m51b5517578" y="295.415435"/>
      </g>
     </g>
    </g>
    <g id="ytick_9">
     <g id="line2d_20">
      <g>
       <use style="stroke:#000000;stroke-width:0.6;" x="57.6" xlink:href="#m51b5517578" y="289.732527"/>
      </g>
     </g>
    </g>
    <g id="ytick_10">
     <g id="line2d_21">
      <g>
       <use style="stroke:#000000;stroke-width:0.6;" x="57.6" xlink:href="#m51b5517578" y="285.324521"/>
      </g>
     </g>
    </g>
    <g id="ytick_11">
     <g id="line2d_22">
      <g>
       <use style="stroke:#000000;stroke-width:0.6;" x="57.6" xlink:href="#m51b5517578" y="281.722918"/>
      </g>
     </g>
    </g>
    <g id="ytick_12">
     <g id="line2d_23">
      <g>
       <use style="stroke:#000000;stroke-width:0.6;" x="57.6" xlink:href="#m51b5517578" y="278.677806"/>
      </g>
     </g>
    </g>
    <g id="ytick_13">
     <g id="line2d_24">
      <g>
       <use style="stroke:#000000;stroke-width:0.6;" x="57.6" xlink:href="#m51b5517578" y="276.04001"/>
      </g>
     </g>
    </g>
    <g id="ytick_14">
     <g id="line2d_25">
      <g>
       <use style="stroke:#000000;stroke-width:0.6;" x="57.6" xlink:href="#m51b5517578" y="273.713309"/>
      </g>
     </g>
    </g>
    <g id="ytick_15">
     <g id="line2d_26">
      <g>
       <use style="stroke:#000000;stroke-width:0.6;" x="57.6" xlink:href="#m51b5517578" y="257.939487"/>
      </g>
     </g>
    </g>
    <g id="ytick_16">
     <g id="line2d_27">
      <g>
       <use style="stroke:#000000;stroke-width:0.6;" x="57.6" xlink:href="#m51b5517578" y="249.929878"/>
      </g>
     </g>
    </g>
    <g id="ytick_17">
     <g id="line2d_28">
      <g>
       <use style="stroke:#000000;stroke-width:0.6;" x="57.6" xlink:href="#m51b5517578" y="244.24697"/>
      </g>
     </g>
    </g>
    <g id="ytick_18">
     <g id="line2d_29">
      <g>
       <use style="stroke:#000000;stroke-width:0.6;" x="57.6" xlink:href="#m51b5517578" y="239.838965"/>
      </g>
     </g>
    </g>
    <g id="ytick_19">
     <g id="line2d_30">
      <g>
       <use style="stroke:#000000;stroke-width:0.6;" x="57.6" xlink:href="#m51b5517578" y="236.237361"/>
      </g>
     </g>
    </g>
    <g id="ytick_20">
     <g id="line2d_31">
      <g>
       <use style="stroke:#000000;stroke-width:0.6;" x="57.6" xlink:href="#m51b5517578" y="233.192249"/>
      </g>
     </g>
    </g>
    <g id="ytick_21">
     <g id="line2d_32">
      <g>
       <use style="stroke:#000000;stroke-width:0.6;" x="57.6" xlink:href="#m51b5517578" y="230.554453"/>
      </g>
     </g>
    </g>
    <g id="ytick_22">
     <g id="line2d_33">
      <g>
       <use style="stroke:#000000;stroke-width:0.6;" x="57.6" xlink:href="#m51b5517578" y="228.227752"/>
      </g>
     </g>
    </g>
    <g id="ytick_23">
     <g id="line2d_34">
      <g>
       <use style="stroke:#000000;stroke-width:0.6;" x="57.6" xlink:href="#m51b5517578" y="212.453931"/>
      </g>
     </g>
    </g>
    <g id="ytick_24">
     <g id="line2d_35">
      <g>
       <use style="stroke:#000000;stroke-width:0.6;" x="57.6" xlink:href="#m51b5517578" y="204.444322"/>
      </g>
     </g>
    </g>
    <g id="ytick_25">
     <g id="line2d_36">
      <g>
       <use style="stroke:#000000;stroke-width:0.6;" x="57.6" xlink:href="#m51b5517578" y="198.761414"/>
      </g>
     </g>
    </g>
    <g id="ytick_26">
     <g id="line2d_37">
      <g>
       <use style="stroke:#000000;stroke-width:0.6;" x="57.6" xlink:href="#m51b5517578" y="194.353408"/>
      </g>
     </g>
    </g>
    <g id="ytick_27">
     <g id="line2d_38">
      <g>
       <use style="stroke:#000000;stroke-width:0.6;" x="57.6" xlink:href="#m51b5517578" y="190.751805"/>
      </g>
     </g>
    </g>
    <g id="ytick_28">
     <g id="line2d_39">
      <g>
       <use style="stroke:#000000;stroke-width:0.6;" x="57.6" xlink:href="#m51b5517578" y="187.706693"/>
      </g>
     </g>
    </g>
    <g id="ytick_29">
     <g id="line2d_40">
      <g>
       <use style="stroke:#000000;stroke-width:0.6;" x="57.6" xlink:href="#m51b5517578" y="185.068897"/>
      </g>
     </g>
    </g>
    <g id="ytick_30">
     <g id="line2d_41">
      <g>
       <use style="stroke:#000000;stroke-width:0.6;" x="57.6" xlink:href="#m51b5517578" y="182.742196"/>
      </g>
     </g>
    </g>
    <g id="ytick_31">
     <g id="line2d_42">
      <g>
       <use style="stroke:#000000;stroke-width:0.6;" x="57.6" xlink:href="#m51b5517578" y="166.968374"/>
      </g>
     </g>
    </g>
    <g id="ytick_32">
     <g id="line2d_43">
      <g>
       <use style="stroke:#000000;stroke-width:0.6;" x="57.6" xlink:href="#m51b5517578" y="158.958765"/>
      </g>
     </g>
    </g>
    <g id="ytick_33">
     <g id="line2d_44">
      <g>
       <use style="stroke:#000000;stroke-width:0.6;" x="57.6" xlink:href="#m51b5517578" y="153.275857"/>
      </g>
     </g>
    </g>
    <g id="ytick_34">
     <g id="line2d_45">
      <g>
       <use style="stroke:#000000;stroke-width:0.6;" x="57.6" xlink:href="#m51b5517578" y="148.867851"/>
      </g>
     </g>
    </g>
    <g id="ytick_35">
     <g id="line2d_46">
      <g>
       <use style="stroke:#000000;stroke-width:0.6;" x="57.6" xlink:href="#m51b5517578" y="145.266248"/>
      </g>
     </g>
    </g>
    <g id="ytick_36">
     <g id="line2d_47">
      <g>
       <use style="stroke:#000000;stroke-width:0.6;" x="57.6" xlink:href="#m51b5517578" y="142.221136"/>
      </g>
     </g>
    </g>
    <g id="ytick_37">
     <g id="line2d_48">
      <g>
       <use style="stroke:#000000;stroke-width:0.6;" x="57.6" xlink:href="#m51b5517578" y="139.58334"/>
      </g>
     </g>
    </g>
    <g id="ytick_38">
     <g id="line2d_49">
      <g>
       <use style="stroke:#000000;stroke-width:0.6;" x="57.6" xlink:href="#m51b5517578" y="137.256639"/>
      </g>
     </g>
    </g>
    <g id="ytick_39">
     <g id="line2d_50">
      <g>
       <use style="stroke:#000000;stroke-width:0.6;" x="57.6" xlink:href="#m51b5517578" y="121.482817"/>
      </g>
     </g>
    </g>
    <g id="ytick_40">
     <g id="line2d_51">
      <g>
       <use style="stroke:#000000;stroke-width:0.6;" x="57.6" xlink:href="#m51b5517578" y="113.473208"/>
      </g>
     </g>
    </g>
    <g id="ytick_41">
     <g id="line2d_52">
      <g>
       <use style="stroke:#000000;stroke-width:0.6;" x="57.6" xlink:href="#m51b5517578" y="107.7903"/>
      </g>
     </g>
    </g>
    <g id="ytick_42">
     <g id="line2d_53">
      <g>
       <use style="stroke:#000000;stroke-width:0.6;" x="57.6" xlink:href="#m51b5517578" y="103.382294"/>
      </g>
     </g>
    </g>
    <g id="ytick_43">
     <g id="line2d_54">
      <g>
       <use style="stroke:#000000;stroke-width:0.6;" x="57.6" xlink:href="#m51b5517578" y="99.780691"/>
      </g>
     </g>
    </g>
    <g id="ytick_44">
     <g id="line2d_55">
      <g>
       <use style="stroke:#000000;stroke-width:0.6;" x="57.6" xlink:href="#m51b5517578" y="96.735579"/>
      </g>
     </g>
    </g>
    <g id="ytick_45">
     <g id="line2d_56">
      <g>
       <use style="stroke:#000000;stroke-width:0.6;" x="57.6" xlink:href="#m51b5517578" y="94.097783"/>
      </g>
     </g>
    </g>
    <g id="ytick_46">
     <g id="line2d_57">
      <g>
       <use style="stroke:#000000;stroke-width:0.6;" x="57.6" xlink:href="#m51b5517578" y="91.771082"/>
      </g>
     </g>
    </g>
    <g id="ytick_47">
     <g id="line2d_58">
      <g>
       <use style="stroke:#000000;stroke-width:0.6;" x="57.6" xlink:href="#m51b5517578" y="75.997261"/>
      </g>
     </g>
    </g>
    <g id="ytick_48">
     <g id="line2d_59">
      <g>
       <use style="stroke:#000000;stroke-width:0.6;" x="57.6" xlink:href="#m51b5517578" y="67.987652"/>
      </g>
     </g>
    </g>
    <g id="ytick_49">
     <g id="line2d_60">
      <g>
       <use style="stroke:#000000;stroke-width:0.6;" x="57.6" xlink:href="#m51b5517578" y="62.304744"/>
      </g>
     </g>
    </g>
    <g id="ytick_50">
     <g id="line2d_61">
      <g>
       <use style="stroke:#000000;stroke-width:0.6;" x="57.6" xlink:href="#m51b5517578" y="57.896738"/>
      </g>
     </g>
    </g>
    <g id="ytick_51">
     <g id="line2d_62">
      <g>
       <use style="stroke:#000000;stroke-width:0.6;" x="57.6" xlink:href="#m51b5517578" y="54.295135"/>
      </g>
     </g>
    </g>
    <g id="ytick_52">
     <g id="line2d_63">
      <g>
       <use style="stroke:#000000;stroke-width:0.6;" x="57.6" xlink:href="#m51b5517578" y="51.250023"/>
      </g>
     </g>
    </g>
    <g id="ytick_53">
     <g id="line2d_64">
      <g>
       <use style="stroke:#000000;stroke-width:0.6;" x="57.6" xlink:href="#m51b5517578" y="48.612227"/>
      </g>
     </g>
    </g>
    <g id="ytick_54">
     <g id="line2d_65">
      <g>
       <use style="stroke:#000000;stroke-width:0.6;" x="57.6" xlink:href="#m51b5517578" y="46.285526"/>
      </g>
     </g>
    </g>
    <g id="text_13">
     <!-- Consommation moyenne (joules, échelle logarithmique) -->
     <defs>
      <path d="M 64.40625 67.28125 
L 64.40625 56.890625 
Q 59.421875 61.53125 53.78125 63.8125 
Q 48.140625 66.109375 41.796875 66.109375 
Q 29.296875 66.109375 22.65625 58.46875 
Q 16.015625 50.828125 16.015625 36.375 
Q 16.015625 21.96875 22.65625 14.328125 
Q 29.296875 6.6875 41.796875 6.6875 
Q 48.140625 6.6875 53.78125 8.984375 
Q 59.421875 11.28125 64.40625 15.921875 
L 64.40625 5.609375 
Q 59.234375 2.09375 53.4375 0.328125 
Q 47.65625 -1.421875 41.21875 -1.421875 
Q 24.65625 -1.421875 15.125 8.703125 
Q 5.609375 18.84375 5.609375 36.375 
Q 5.609375 53.953125 15.125 64.078125 
Q 24.65625 74.21875 41.21875 74.21875 
Q 47.75 74.21875 53.53125 72.484375 
Q 59.328125 70.75 64.40625 67.28125 
z
" id="DejaVuSans-67"/>
      <path d="M 31 75.875 
Q 24.46875 64.65625 21.28125 53.65625 
Q 18.109375 42.671875 18.109375 31.390625 
Q 18.109375 20.125 21.3125 9.0625 
Q 24.515625 -2 31 -13.1875 
L 23.1875 -13.1875 
Q 15.875 -1.703125 12.234375 9.375 
Q 8.59375 20.453125 8.59375 31.390625 
Q 8.59375 42.28125 12.203125 53.3125 
Q 15.828125 64.359375 23.1875 75.875 
z
" id="DejaVuSans-40"/>
      <path d="M 9.421875 54.6875 
L 18.40625 54.6875 
L 18.40625 -0.984375 
Q 18.40625 -11.421875 14.421875 -16.109375 
Q 10.453125 -20.796875 1.609375 -20.796875 
L -1.8125 -20.796875 
L -1.8125 -13.1875 
L 0.59375 -13.1875 
Q 5.71875 -13.1875 7.5625 -10.8125 
Q 9.421875 -8.453125 9.421875 -0.984375 
z
M 9.421875 75.984375 
L 18.40625 75.984375 
L 18.40625 64.59375 
L 9.421875 64.59375 
z
" id="DejaVuSans-106"/>
      <path d="M 11.71875 12.40625 
L 22.015625 12.40625 
L 22.015625 4 
L 14.015625 -11.625 
L 7.71875 -11.625 
L 11.71875 4 
z
" id="DejaVuSans-44"/>
      <path d="M 56.203125 29.59375 
L 56.203125 25.203125 
L 14.890625 25.203125 
Q 15.484375 15.921875 20.484375 11.0625 
Q 25.484375 6.203125 34.421875 6.203125 
Q 39.59375 6.203125 44.453125 7.46875 
Q 49.3125 8.734375 54.109375 11.28125 
L 54.109375 2.78125 
Q 49.265625 0.734375 44.1875 -0.34375 
Q 39.109375 -1.421875 33.890625 -1.421875 
Q 20.796875 -1.421875 13.15625 6.1875 
Q 5.515625 13.8125 5.515625 26.8125 
Q 5.515625 40.234375 12.765625 48.109375 
Q 20.015625 56 32.328125 56 
Q 43.359375 56 49.78125 48.890625 
Q 56.203125 41.796875 56.203125 29.59375 
z
M 47.21875 32.234375 
Q 47.125 39.59375 43.09375 43.984375 
Q 39.0625 48.390625 32.421875 48.390625 
Q 24.90625 48.390625 20.390625 44.140625 
Q 15.875 39.890625 15.1875 32.171875 
z
M 38.578125 79.984375 
L 48.296875 79.984375 
L 32.375 61.625 
L 24.90625 61.625 
z
" id="DejaVuSans-233"/>
      <path d="M 8.015625 75.875 
L 15.828125 75.875 
Q 23.140625 64.359375 26.78125 53.3125 
Q 30.421875 42.28125 30.421875 31.390625 
Q 30.421875 20.453125 26.78125 9.375 
Q 23.140625 -1.703125 15.828125 -13.1875 
L 8.015625 -13.1875 
Q 14.5 -2 17.703125 9.0625 
Q 20.90625 20.125 20.90625 31.390625 
Q 20.90625 42.671875 17.703125 53.65625 
Q 14.5 64.65625 8.015625 75.875 
z
" id="DejaVuSans-41"/>
     </defs>
     <g transform="translate(21.020312 315.072531)rotate(-90)scale(0.1 -0.1)">
      <use xlink:href="#DejaVuSans-67"/>
      <use x="69.824219" xlink:href="#DejaVuSans-111"/>
      <use x="131.005859" xlink:href="#DejaVuSans-110"/>
      <use x="194.384766" xlink:href="#DejaVuSans-115"/>
      <use x="246.484375" xlink:href="#DejaVuSans-111"/>
      <use x="307.666016" xlink:href="#DejaVuSans-109"/>
      <use x="405.078125" xlink:href="#DejaVuSans-109"/>
      <use x="502.490234" xlink:href="#DejaVuSans-97"/>
      <use x="563.769531" xlink:href="#DejaVuSans-116"/>
      <use x="602.978516" xlink:href="#DejaVuSans-105"/>
      <use x="630.761719" xlink:href="#DejaVuSans-111"/>
      <use x="691.943359" xlink:href="#DejaVuSans-110"/>
      <use x="755.322266" xlink:href="#DejaVuSans-32"/>
      <use x="787.109375" xlink:href="#DejaVuSans-109"/>
      <use x="884.521484" xlink:href="#DejaVuSans-111"/>
      <use x="945.703125" xlink:href="#DejaVuSans-121"/>
      <use x="1004.882812" xlink:href="#DejaVuSans-101"/>
      <use x="1066.40625" xlink:href="#DejaVuSans-110"/>
      <use x="1129.785156" xlink:href="#DejaVuSans-110"/>
      <use x="1193.164062" xlink:href="#DejaVuSans-101"/>
      <use x="1254.6875" xlink:href="#DejaVuSans-32"/>
      <use x="1286.474609" xlink:href="#DejaVuSans-40"/>
      <use x="1325.488281" xlink:href="#DejaVuSans-106"/>
      <use x="1353.271484" xlink:href="#DejaVuSans-111"/>
      <use x="1414.453125" xlink:href="#DejaVuSans-117"/>
      <use x="1477.832031" xlink:href="#DejaVuSans-108"/>
      <use x="1505.615234" xlink:href="#DejaVuSans-101"/>
      <use x="1567.138672" xlink:href="#DejaVuSans-115"/>
      <use x="1619.238281" xlink:href="#DejaVuSans-44"/>
      <use x="1651.025391" xlink:href="#DejaVuSans-32"/>
      <use x="1682.8125" xlink:href="#DejaVuSans-233"/>
      <use x="1744.335938" xlink:href="#DejaVuSans-99"/>
      <use x="1799.316406" xlink:href="#DejaVuSans-104"/>
      <use x="1862.695312" xlink:href="#DejaVuSans-101"/>
      <use x="1924.21875" xlink:href="#DejaVuSans-108"/>
      <use x="1952.001953" xlink:href="#DejaVuSans-108"/>
      <use x="1979.785156" xlink:href="#DejaVuSans-101"/>
      <use x="2041.308594" xlink:href="#DejaVuSans-32"/>
      <use x="2073.095703" xlink:href="#DejaVuSans-108"/>
      <use x="2100.878906" xlink:href="#DejaVuSans-111"/>
      <use x="2162.060547" xlink:href="#DejaVuSans-103"/>
      <use x="2225.537109" xlink:href="#DejaVuSans-97"/>
      <use x="2286.816406" xlink:href="#DejaVuSans-114"/>
      <use x="2327.929688" xlink:href="#DejaVuSans-105"/>
      <use x="2355.712891" xlink:href="#DejaVuSans-116"/>
      <use x="2394.921875" xlink:href="#DejaVuSans-104"/>
      <use x="2458.300781" xlink:href="#DejaVuSans-109"/>
      <use x="2555.712891" xlink:href="#DejaVuSans-105"/>
      <use x="2583.496094" xlink:href="#DejaVuSans-113"/>
      <use x="2646.972656" xlink:href="#DejaVuSans-117"/>
      <use x="2710.351562" xlink:href="#DejaVuSans-101"/>
      <use x="2771.875" xlink:href="#DejaVuSans-41"/>
     </g>
    </g>
   </g>
   <g id="patch_3">
    <path clip-path="url(#peb5fa7392e)" d="M 73.832727 45620.732036 
L 84.535624 45620.732036 
L 84.535624 235.430959 
L 73.832727 235.430959 
z
" style="fill:#a6cee3;"/>
   </g>
   <g id="patch_4">
    <path clip-path="url(#peb5fa7392e)" d="M 145.185375 45620.732036 
L 155.888272 45620.732036 
L 155.888272 264.171212 
L 145.185375 264.171212 
z
" style="fill:#a6cee3;"/>
   </g>
   <g id="patch_5">
    <path clip-path="url(#peb5fa7392e)" d="M 216.538022 45620.732036 
L 227.240919 45620.732036 
L 227.240919 229.839844 
L 216.538022 229.839844 
z
" style="fill:#a6cee3;"/>
   </g>
   <g id="patch_6">
    <path clip-path="url(#peb5fa7392e)" d="M 287.890669 45620.732036 
L 298.593566 45620.732036 
L 298.593566 271.731023 
L 287.890669 271.731023 
z
" style="fill:#a6cee3;"/>
   </g>
   <g id="patch_7">
    <path clip-path="url(#peb5fa7392e)" d="M 359.243317 45620.732036 
L 369.946214 45620.732036 
L 369.946214 70.604308 
L 359.243317 70.604308 
z
" style="fill:#a6cee3;"/>
   </g>
   <g id="patch_8">
    <path clip-path="url(#peb5fa7392e)" d="M 88.103257 45620.732036 
L 98.806154 45620.732036 
L 98.806154 45620.732036 
L 88.103257 45620.732036 
z
" style="fill:#b2df8a;"/>
   </g>
   <g id="patch_9">
    <path clip-path="url(#peb5fa7392e)" d="M 159.455904 45620.732036 
L 170.158801 45620.732036 
L 170.158801 45620.732036 
L 159.455904 45620.732036 
z
" style="fill:#b2df8a;"/>
   </g>
   <g id="patch_10">
    <path clip-path="url(#peb5fa7392e)" d="M 230.808551 45620.732036 
L 241.511449 45620.732036 
L 241.511449 45620.732036 
L 230.808551 45620.732036 
z
" style="fill:#b2df8a;"/>
   </g>
   <g id="patch_11">
    <path clip-path="url(#peb5fa7392e)" d="M 302.161199 45620.732036 
L 312.864096 45620.732036 
L 312.864096 45620.732036 
L 302.161199 45620.732036 
z
" style="fill:#b2df8a;"/>
   </g>
   <g id="patch_12">
    <path clip-path="url(#peb5fa7392e)" d="M 373.513846 45620.732036 
L 384.216743 45620.732036 
L 384.216743 197.321943 
L 373.513846 197.321943 
z
" style="fill:#b2df8a;"/>
   </g>
   <g id="patch_13">
    <path clip-path="url(#peb5fa7392e)" d="M 102.373786 45620.732036 
L 113.076683 45620.732036 
L 113.076683 232.117486 
L 102.373786 232.117486 
z
" style="fill:#fb9a99;"/>
   </g>
   <g id="patch_14">
    <path clip-path="url(#peb5fa7392e)" d="M 173.726434 45620.732036 
L 184.429331 45620.732036 
L 184.429331 260.627013 
L 173.726434 260.627013 
z
" style="fill:#fb9a99;"/>
   </g>
   <g id="patch_15">
    <path clip-path="url(#peb5fa7392e)" d="M 245.079081 45620.732036 
L 255.781978 45620.732036 
L 255.781978 226.901064 
L 245.079081 226.901064 
z
" style="fill:#fb9a99;"/>
   </g>
   <g id="patch_16">
    <path clip-path="url(#peb5fa7392e)" d="M 316.431728 45620.732036 
L 327.134625 45620.732036 
L 327.134625 254.500702 
L 316.431728 254.500702 
z
" style="fill:#fb9a99;"/>
   </g>
   <g id="patch_17">
    <path clip-path="url(#peb5fa7392e)" d="M 387.784376 45620.732036 
L 398.487273 45620.732036 
L 398.487273 67.328 
L 387.784376 67.328 
z
" style="fill:#fb9a99;"/>
   </g>
   <g id="patch_18">
    <path clip-path="url(#peb5fa7392e)" d="M 102.373786 232.117486 
L 113.076683 232.117486 
L 113.076683 230.792687 
L 102.373786 230.792687 
z
" style="fill:#fdbf6f;"/>
   </g>
   <g id="patch_19">
    <path clip-path="url(#peb5fa7392e)" d="M 173.726434 260.627013 
L 184.429331 260.627013 
L 184.429331 258.782964 
L 173.726434 258.782964 
z
" style="fill:#fdbf6f;"/>
   </g>
   <g id="patch_20">
    <path clip-path="url(#peb5fa7392e)" d="M 245.079081 226.901064 
L 255.781978 226.901064 
L 255.781978 225.852141 
L 245.079081 225.852141 
z
" style="fill:#fdbf6f;"/>
   </g>
   <g id="patch_21">
    <path clip-path="url(#peb5fa7392e)" d="M 316.431728 254.500702 
L 327.134625 254.500702 
L 327.134625 252.756711 
L 316.431728 252.756711 
z
" style="fill:#fdbf6f;"/>
   </g>
   <g id="patch_22">
    <path clip-path="url(#peb5fa7392e)" d="M 387.784376 67.328 
L 398.487273 67.328 
L 398.487273 66.236326 
L 387.784376 66.236326 
z
" style="fill:#fdbf6f;"/>
   </g>
   <g id="LineCollection_1">
    <path clip-path="url(#peb5fa7392e)" d="M 79.184176 293.592618 
L 79.184176 221.393793 
" style="fill:none;stroke:#1f78b4;stroke-width:1.5;"/>
    <path clip-path="url(#peb5fa7392e)" d="M 150.536823 295.488 
L 150.536823 247.744743 
" style="fill:none;stroke:#1f78b4;stroke-width:1.5;"/>
    <path clip-path="url(#peb5fa7392e)" d="M 221.889471 283.669332 
L 221.889471 215.42676 
" style="fill:none;stroke:#1f78b4;stroke-width:1.5;"/>
    <path clip-path="url(#peb5fa7392e)" d="M 293.242118 293.956201 
L 293.242118 255.922488 
" style="fill:none;stroke:#1f78b4;stroke-width:1.5;"/>
    <path clip-path="url(#peb5fa7392e)" d="M 364.594765 168.375019 
L 364.594765 56.846873 
" style="fill:none;stroke:#1f78b4;stroke-width:1.5;"/>
   </g>
   <g id="LineCollection_2">
    <path clip-path="url(#peb5fa7392e)" style="fill:none;stroke:#33a02c;stroke-width:1.5;"/>
    <path clip-path="url(#peb5fa7392e)" style="fill:none;stroke:#33a02c;stroke-width:1.5;"/>
    <path clip-path="url(#peb5fa7392e)" style="fill:none;stroke:#33a02c;stroke-width:1.5;"/>
    <path clip-path="url(#peb5fa7392e)" style="fill:none;stroke:#33a02c;stroke-width:1.5;"/>
    <path clip-path="url(#peb5fa7392e)" d="M 378.865295 197.321943 
L 378.865295 166.164506 
" style="fill:none;stroke:#33a02c;stroke-width:1.5;"/>
   </g>
   <g id="LineCollection_3">
    <path clip-path="url(#peb5fa7392e)" d="M 107.725235 232.117486 
L 107.725235 216.640455 
" style="fill:none;stroke:#e31a1c;stroke-width:1.5;"/>
    <path clip-path="url(#peb5fa7392e)" d="M 179.077882 260.627013 
L 179.077882 224.890197 
" style="fill:none;stroke:#e31a1c;stroke-width:1.5;"/>
    <path clip-path="url(#peb5fa7392e)" d="M 250.430529 266.069965 
L 250.430529 206.245071 
" style="fill:none;stroke:#e31a1c;stroke-width:1.5;"/>
    <path clip-path="url(#peb5fa7392e)" d="M 321.783177 254.500702 
L 321.783177 225.073261 
" style="fill:none;stroke:#e31a1c;stroke-width:1.5;"/>
    <path clip-path="url(#peb5fa7392e)" d="M 393.135824 166.269517 
L 393.135824 53.568 
" style="fill:none;stroke:#e31a1c;stroke-width:1.5;"/>
   </g>
   <g id="LineCollection_4">
    <path clip-path="url(#peb5fa7392e)" d="M 111.292867 230.792687 
L 111.292867 229.1831 
" style="fill:none;stroke:#ff7f00;stroke-width:1.5;"/>
    <path clip-path="url(#peb5fa7392e)" d="M 182.645514 258.782964 
L 182.645514 253.323972 
" style="fill:none;stroke:#ff7f00;stroke-width:1.5;"/>
    <path clip-path="url(#peb5fa7392e)" d="M 253.998162 226.825477 
L 253.998162 224.809725 
" style="fill:none;stroke:#ff7f00;stroke-width:1.5;"/>
    <path clip-path="url(#peb5fa7392e)" d="M 325.350809 252.756711 
L 325.350809 245.792372 
" style="fill:none;stroke:#ff7f00;stroke-width:1.5;"/>
    <path clip-path="url(#peb5fa7392e)" d="M 396.703457 67.288203 
L 396.703457 65.12554 
" style="fill:none;stroke:#ff7f00;stroke-width:1.5;"/>
   </g>
   <g id="line2d_66">
    <defs>
     <path d="M 4 0 
L -4 -0 
" id="mdad4c15d9c" style="stroke:#1f78b4;"/>
    </defs>
    <g clip-path="url(#peb5fa7392e)">
     <use style="fill:#1f78b4;stroke:#1f78b4;" x="79.184176" xlink:href="#mdad4c15d9c" y="293.592618"/>
     <use style="fill:#1f78b4;stroke:#1f78b4;" x="150.536823" xlink:href="#mdad4c15d9c" y="295.488"/>
     <use style="fill:#1f78b4;stroke:#1f78b4;" x="221.889471" xlink:href="#mdad4c15d9c" y="283.669332"/>
     <use style="fill:#1f78b4;stroke:#1f78b4;" x="293.242118" xlink:href="#mdad4c15d9c" y="293.956201"/>
     <use style="fill:#1f78b4;stroke:#1f78b4;" x="364.594765" xlink:href="#mdad4c15d9c" y="168.375019"/>
    </g>
   </g>
   <g id="line2d_67">
    <g clip-path="url(#peb5fa7392e)">
     <use style="fill:#1f78b4;stroke:#1f78b4;" x="79.184176" xlink:href="#mdad4c15d9c" y="221.393793"/>
     <use style="fill:#1f78b4;stroke:#1f78b4;" x="150.536823" xlink:href="#mdad4c15d9c" y="247.744743"/>
     <use style="fill:#1f78b4;stroke:#1f78b4;" x="221.889471" xlink:href="#mdad4c15d9c" y="215.42676"/>
     <use style="fill:#1f78b4;stroke:#1f78b4;" x="293.242118" xlink:href="#mdad4c15d9c" y="255.922488"/>
     <use style="fill:#1f78b4;stroke:#1f78b4;" x="364.594765" xlink:href="#mdad4c15d9c" y="56.846873"/>
    </g>
   </g>
   <g id="line2d_68">
    <defs>
     <path d="M 4 0 
L -4 -0 
" id="m858305f68a" style="stroke:#33a02c;"/>
    </defs>
    <g clip-path="url(#peb5fa7392e)">
     <use style="fill:#33a02c;stroke:#33a02c;" x="340.086302" xlink:href="#m858305f68a" y="24884.2"/>
     <use style="fill:#33a02c;stroke:#33a02c;" x="378.865295" xlink:href="#m858305f68a" y="197.321943"/>
    </g>
   </g>
   <g id="line2d_69">
    <g clip-path="url(#peb5fa7392e)">
     <use style="fill:#33a02c;stroke:#33a02c;" x="340.063974" xlink:href="#m858305f68a" y="24884.2"/>
     <use style="fill:#33a02c;stroke:#33a02c;" x="378.865295" xlink:href="#m858305f68a" y="166.164506"/>
    </g>
   </g>
   <g id="line2d_70">
    <defs>
     <path d="M 4 0 
L -4 -0 
" id="m5b4aad600f" style="stroke:#e31a1c;"/>
    </defs>
    <g clip-path="url(#peb5fa7392e)">
     <use style="fill:#e31a1c;stroke:#e31a1c;" x="107.725235" xlink:href="#m5b4aad600f" y="232.117486"/>
     <use style="fill:#e31a1c;stroke:#e31a1c;" x="179.077882" xlink:href="#m5b4aad600f" y="260.627013"/>
     <use style="fill:#e31a1c;stroke:#e31a1c;" x="250.430529" xlink:href="#m5b4aad600f" y="266.069965"/>
     <use style="fill:#e31a1c;stroke:#e31a1c;" x="321.783177" xlink:href="#m5b4aad600f" y="254.500702"/>
     <use style="fill:#e31a1c;stroke:#e31a1c;" x="393.135824" xlink:href="#m5b4aad600f" y="166.269517"/>
    </g>
   </g>
   <g id="line2d_71">
    <g clip-path="url(#peb5fa7392e)">
     <use style="fill:#e31a1c;stroke:#e31a1c;" x="107.725235" xlink:href="#m5b4aad600f" y="216.640455"/>
     <use style="fill:#e31a1c;stroke:#e31a1c;" x="179.077882" xlink:href="#m5b4aad600f" y="224.890197"/>
     <use style="fill:#e31a1c;stroke:#e31a1c;" x="250.430529" xlink:href="#m5b4aad600f" y="206.245071"/>
     <use style="fill:#e31a1c;stroke:#e31a1c;" x="321.783177" xlink:href="#m5b4aad600f" y="225.073261"/>
     <use style="fill:#e31a1c;stroke:#e31a1c;" x="393.135824" xlink:href="#m5b4aad600f" y="53.568"/>
    </g>
   </g>
   <g id="line2d_72">
    <defs>
     <path d="M 4 0 
L -4 -0 
" id="m3550170252" style="stroke:#ff7f00;"/>
    </defs>
    <g clip-path="url(#peb5fa7392e)">
     <use style="fill:#ff7f00;stroke:#ff7f00;" x="111.292867" xlink:href="#m3550170252" y="230.792687"/>
     <use style="fill:#ff7f00;stroke:#ff7f00;" x="182.645514" xlink:href="#m3550170252" y="258.782964"/>
     <use style="fill:#ff7f00;stroke:#ff7f00;" x="253.998162" xlink:href="#m3550170252" y="226.825477"/>
     <use style="fill:#ff7f00;stroke:#ff7f00;" x="325.350809" xlink:href="#m3550170252" y="252.756711"/>
     <use style="fill:#ff7f00;stroke:#ff7f00;" x="396.703457" xlink:href="#m3550170252" y="67.288203"/>
    </g>
   </g>
   <g id="line2d_73">
    <g clip-path="url(#peb5fa7392e)">
     <use style="fill:#ff7f00;stroke:#ff7f00;" x="111.292867" xlink:href="#m3550170252" y="229.1831"/>
     <use style="fill:#ff7f00;stroke:#ff7f00;" x="182.645514" xlink:href="#m3550170252" y="253.323972"/>
     <use style="fill:#ff7f00;stroke:#ff7f00;" x="253.998162" xlink:href="#m3550170252" y="224.809725"/>
     <use style="fill:#ff7f00;stroke:#ff7f00;" x="325.350809" xlink:href="#m3550170252" y="245.792372"/>
     <use style="fill:#ff7f00;stroke:#ff7f00;" x="396.703457" xlink:href="#m3550170252" y="65.12554"/>
    </g>
   </g>
   <g id="line2d_74">
    <defs>
     <path d="M 0 2 
C 0.530406 2 1.03916 1.789267 1.414214 1.414214 
C 1.789267 1.03916 2 0.530406 2 0 
C 2 -0.530406 1.789267 -1.03916 1.414214 -1.414214 
C 1.03916 -1.789267 0.530406 -2 0 -2 
C -0.530406 -2 -1.03916 -1.789267 -1.414214 -1.414214 
C -1.789267 -1.03916 -2 -0.530406 -2 0 
C -2 0.530406 -1.789267 1.03916 -1.414214 1.414214 
C -1.03916 1.789267 -0.530406 2 0 2 
z
" id="m8f23477da8" style="stroke:#1f78b4;"/>
    </defs>
    <g clip-path="url(#peb5fa7392e)">
     <use style="fill:#1f78b4;stroke:#1f78b4;" x="79.184176" xlink:href="#m8f23477da8" y="235.430959"/>
     <use style="fill:#1f78b4;stroke:#1f78b4;" x="150.536823" xlink:href="#m8f23477da8" y="264.171212"/>
     <use style="fill:#1f78b4;stroke:#1f78b4;" x="221.889471" xlink:href="#m8f23477da8" y="229.839844"/>
     <use style="fill:#1f78b4;stroke:#1f78b4;" x="293.242118" xlink:href="#m8f23477da8" y="271.731023"/>
     <use style="fill:#1f78b4;stroke:#1f78b4;" x="364.594765" xlink:href="#m8f23477da8" y="70.604308"/>
    </g>
   </g>
   <g id="line2d_75">
    <defs>
     <path d="M 0 2 
C 0.530406 2 1.03916 1.789267 1.414214 1.414214 
C 1.789267 1.03916 2 0.530406 2 0 
C 2 -0.530406 1.789267 -1.03916 1.414214 -1.414214 
C 1.03916 -1.789267 0.530406 -2 0 -2 
C -0.530406 -2 -1.03916 -1.789267 -1.414214 -1.414214 
C -1.789267 -1.03916 -2 -0.530406 -2 0 
C -2 0.530406 -1.789267 1.03916 -1.414214 1.414214 
C -1.03916 1.789267 -0.530406 2 0 2 
z
" id="m7b8f5f2f82" style="stroke:#33a02c;"/>
    </defs>
    <g clip-path="url(#peb5fa7392e)">
     <use style="fill:#33a02c;stroke:#33a02c;" x="340.086302" xlink:href="#m7b8f5f2f82" y="24884.2"/>
     <use style="fill:#33a02c;stroke:#33a02c;" x="378.865295" xlink:href="#m7b8f5f2f82" y="197.321943"/>
    </g>
   </g>
   <g id="line2d_76">
    <defs>
     <path d="M 0 2 
C 0.530406 2 1.03916 1.789267 1.414214 1.414214 
C 1.789267 1.03916 2 0.530406 2 0 
C 2 -0.530406 1.789267 -1.03916 1.414214 -1.414214 
C 1.03916 -1.789267 0.530406 -2 0 -2 
C -0.530406 -2 -1.03916 -1.789267 -1.414214 -1.414214 
C -1.789267 -1.03916 -2 -0.530406 -2 0 
C -2 0.530406 -1.789267 1.03916 -1.414214 1.414214 
C -1.03916 1.789267 -0.530406 2 0 2 
z
" id="m05b530772f" style="stroke:#e31a1c;"/>
    </defs>
    <g clip-path="url(#peb5fa7392e)">
     <use style="fill:#e31a1c;stroke:#e31a1c;" x="107.725235" xlink:href="#m05b530772f" y="232.117486"/>
     <use style="fill:#e31a1c;stroke:#e31a1c;" x="179.077882" xlink:href="#m05b530772f" y="260.627013"/>
     <use style="fill:#e31a1c;stroke:#e31a1c;" x="250.430529" xlink:href="#m05b530772f" y="226.901064"/>
     <use style="fill:#e31a1c;stroke:#e31a1c;" x="321.783177" xlink:href="#m05b530772f" y="254.500702"/>
     <use style="fill:#e31a1c;stroke:#e31a1c;" x="393.135824" xlink:href="#m05b530772f" y="67.328"/>
    </g>
   </g>
   <g id="line2d_77">
    <defs>
     <path d="M 0 2 
C 0.530406 2 1.03916 1.789267 1.414214 1.414214 
C 1.789267 1.03916 2 0.530406 2 0 
C 2 -0.530406 1.789267 -1.03916 1.414214 -1.414214 
C 1.03916 -1.789267 0.530406 -2 0 -2 
C -0.530406 -2 -1.03916 -1.789267 -1.414214 -1.414214 
C -1.789267 -1.03916 -2 -0.530406 -2 0 
C -2 0.530406 -1.789267 1.03916 -1.414214 1.414214 
C -1.03916 1.789267 -0.530406 2 0 2 
z
" id="m9e3bf1c316" style="stroke:#ff7f00;"/>
    </defs>
    <g clip-path="url(#peb5fa7392e)">
     <use style="fill:#ff7f00;stroke:#ff7f00;" x="111.292867" xlink:href="#m9e3bf1c316" y="230.792687"/>
     <use style="fill:#ff7f00;stroke:#ff7f00;" x="182.645514" xlink:href="#m9e3bf1c316" y="258.782964"/>
     <use style="fill:#ff7f00;stroke:#ff7f00;" x="253.998162" xlink:href="#m9e3bf1c316" y="225.852141"/>
     <use style="fill:#ff7f00;stroke:#ff7f00;" x="325.350809" xlink:href="#m9e3bf1c316" y="252.756711"/>
     <use style="fill:#ff7f00;stroke:#ff7f00;" x="396.703457" xlink:href="#m9e3bf1c316" y="66.236326"/>
    </g>
   </g>
   <g id="patch_23">
    <path d="M 57.6 307.584 
L 57.6 41.472 
" style="fill:none;stroke:#000000;stroke-linecap:square;stroke-linejoin:miter;stroke-width:0.8;"/>
   </g>
   <g id="patch_24">
    <path d="M 414.72 307.584 
L 414.72 41.472 
" style="fill:none;stroke:#000000;stroke-linecap:square;stroke-linejoin:miter;stroke-width:0.8;"/>
   </g>
   <g id="patch_25">
    <path d="M 57.6 307.584 
L 414.72 307.584 
" style="fill:none;stroke:#000000;stroke-linecap:square;stroke-linejoin:miter;stroke-width:0.8;"/>
   </g>
   <g id="patch_26">
    <path d="M 57.6 41.472 
L 414.72 41.472 
" style="fill:none;stroke:#000000;stroke-linecap:square;stroke-linejoin:miter;stroke-width:0.8;"/>
   </g>
   <g id="legend_1">
    <g id="patch_27">
     <path d="M 64.6 109.297 
L 150.35625 109.297 
Q 152.35625 109.297 152.35625 107.297 
L 152.35625 48.472 
Q 152.35625 46.472 150.35625 46.472 
L 64.6 46.472 
Q 62.6 46.472 62.6 48.472 
L 62.6 107.297 
Q 62.6 109.297 64.6 109.297 
z
" style="fill:#ffffff;opacity:0.8;stroke:#cccccc;stroke-linejoin:miter;"/>
    </g>
    <g id="patch_28">
     <path d="M 66.6 58.070437 
L 86.6 58.070437 
L 86.6 51.070437 
L 66.6 51.070437 
z
" style="fill:#a6cee3;"/>
    </g>
    <g id="text_14">
     <!-- core_0 -->
     <g transform="translate(94.6 58.070437)scale(0.1 -0.1)">
      <use xlink:href="#DejaVuSans-99"/>
      <use x="54.980469" xlink:href="#DejaVuSans-111"/>
      <use x="116.162109" xlink:href="#DejaVuSans-114"/>
      <use x="157.244141" xlink:href="#DejaVuSans-101"/>
      <use x="218.767578" xlink:href="#DejaVuSans-95"/>
      <use x="268.767578" xlink:href="#DejaVuSans-48"/>
     </g>
    </g>
    <g id="patch_29">
     <path d="M 66.6 73.026687 
L 86.6 73.026687 
L 86.6 66.026687 
L 66.6 66.026687 
z
" style="fill:#b2df8a;"/>
    </g>
    <g id="text_15">
     <!-- uncore_0 -->
     <g transform="translate(94.6 73.026687)scale(0.1 -0.1)">
      <use xlink:href="#DejaVuSans-117"/>
      <use x="63.378906" xlink:href="#DejaVuSans-110"/>
      <use x="126.757812" xlink:href="#DejaVuSans-99"/>
      <use x="181.738281" xlink:href="#DejaVuSans-111"/>
      <use x="242.919922" xlink:href="#DejaVuSans-114"/>
      <use x="284.001953" xlink:href="#DejaVuSans-101"/>
      <use x="345.525391" xlink:href="#DejaVuSans-95"/>
      <use x="395.525391" xlink:href="#DejaVuSans-48"/>
     </g>
    </g>
    <g id="patch_30">
     <path d="M 66.6 87.982937 
L 86.6 87.982937 
L 86.6 80.982937 
L 66.6 80.982937 
z
" style="fill:#fb9a99;"/>
    </g>
    <g id="text_16">
     <!-- package_0 -->
     <defs>
      <path d="M 9.078125 75.984375 
L 18.109375 75.984375 
L 18.109375 31.109375 
L 44.921875 54.6875 
L 56.390625 54.6875 
L 27.390625 29.109375 
L 57.625 0 
L 45.90625 0 
L 18.109375 26.703125 
L 18.109375 0 
L 9.078125 0 
z
" id="DejaVuSans-107"/>
     </defs>
     <g transform="translate(94.6 87.982937)scale(0.1 -0.1)">
      <use xlink:href="#DejaVuSans-112"/>
      <use x="63.476562" xlink:href="#DejaVuSans-97"/>
      <use x="124.755859" xlink:href="#DejaVuSans-99"/>
      <use x="179.736328" xlink:href="#DejaVuSans-107"/>
      <use x="237.630859" xlink:href="#DejaVuSans-97"/>
      <use x="298.910156" xlink:href="#DejaVuSans-103"/>
      <use x="362.386719" xlink:href="#DejaVuSans-101"/>
      <use x="423.910156" xlink:href="#DejaVuSans-95"/>
      <use x="473.910156" xlink:href="#DejaVuSans-48"/>
     </g>
    </g>
    <g id="patch_31">
     <path d="M 66.6 102.939187 
L 86.6 102.939187 
L 86.6 95.939187 
L 66.6 95.939187 
z
" style="fill:#fdbf6f;"/>
    </g>
    <g id="text_17">
     <!-- dram_0 -->
     <defs>
      <path d="M 45.40625 46.390625 
L 45.40625 75.984375 
L 54.390625 75.984375 
L 54.390625 0 
L 45.40625 0 
L 45.40625 8.203125 
Q 42.578125 3.328125 38.25 0.953125 
Q 33.9375 -1.421875 27.875 -1.421875 
Q 17.96875 -1.421875 11.734375 6.484375 
Q 5.515625 14.40625 5.515625 27.296875 
Q 5.515625 40.1875 11.734375 48.09375 
Q 17.96875 56 27.875 56 
Q 33.9375 56 38.25 53.625 
Q 42.578125 51.265625 45.40625 46.390625 
z
M 14.796875 27.296875 
Q 14.796875 17.390625 18.875 11.75 
Q 22.953125 6.109375 30.078125 6.109375 
Q 37.203125 6.109375 41.296875 11.75 
Q 45.40625 17.390625 45.40625 27.296875 
Q 45.40625 37.203125 41.296875 42.84375 
Q 37.203125 48.484375 30.078125 48.484375 
Q 22.953125 48.484375 18.875 42.84375 
Q 14.796875 37.203125 14.796875 27.296875 
z
" id="DejaVuSans-100"/>
     </defs>
     <g transform="translate(94.6 102.939187)scale(0.1 -0.1)">
      <use xlink:href="#DejaVuSans-100"/>
      <use x="63.476562" xlink:href="#DejaVuSans-114"/>
      <use x="104.589844" xlink:href="#DejaVuSans-97"/>
      <use x="165.869141" xlink:href="#DejaVuSans-109"/>
      <use x="263.28125" xlink:href="#DejaVuSans-95"/>
      <use x="313.28125" xlink:href="#DejaVuSans-48"/>
     </g>
    </g>
   </g>
  </g>
 </g>
 <defs>
  <clipPath id="peb5fa7392e">
   <rect height="266.112" width="357.12" x="57.6" y="41.472"/>
  </clipPath>
 </defs>
</svg>
